# xmcd CD database generated by RipIT
#
# Track frame offsets:
# 150
# 7953
# 14455
# 21108
# 43708
# 52432
# 69390
# 81240
# 87635
# 106289
# 122489
# 149849
# 173384
# 184480
# 198954
# 217045
# 231033
# 246550
# 255522
# 273081
# 284288
# 297280
#
# Disc length: 4085 seconds
#
# Revision: 0
# Processed by: cddbd v1.5.2PL0 Copyright (c) Steve Scherf et al.
# Submitted via: RipIT 3.9.0 www.suwald.com/ripit/ripit.html on 2015-10-23 at 23:20
#
DISCID=4a0ff316
DTITLE=Lead Belly - Lead Belly: Smithsonian Folkways Collection CD 5
DYEAR=2015
DGENRE=Blues
TTITLE0=Yes, I Was Standing in the Bottom - When It's Springtime in the Rockies [Lead Belly]
TTITLE1=Ain't Going Down to the Well No More (version 2) [Lead Belly]
TTITLE2=Everytime I Go Out [Lead Belly]
TTITLE3=Go Down, Old Hannah [Lead Belly]
TTITLE4=Black Betty [Lead Belly]
TTITLE5=Nobody Knows You When You're Down and Out [Lead Belly with Bessie Smith]
TTITLE6=Stewball [Lead Belly with Martha Ledbetter]
TTITLE7=Ain't It a Shame to Go Fishin' on a Sunday [Lead Belly]
TTITLE8=Relax Your Mind [Lead Belly]
TTITLE9=Princess Elizabeth [Lead Belly]
TTITLE10=Silver City Bound [Lead Belly]
TTITLE11=The Titanic [Lead Belly]
TTITLE12=House of the Rising Sun [Lead Belly and Martha Ledbetter]
TTITLE13=It's Tight Like That [Lead Belly]
TTITLE14=Diggin' My Potatoes [Lead Belly]
TTITLE15=Springtime in the Rockies [Lead Belly]
TTITLE16=Backwater Blues [Lead Belly]
TTITLE17=Didn't Old John Cross the Water [Lead Belly]
TTITLE18=De Kalb Blues (Ain't Gonna Drink No More) [Lead Belly]
TTITLE19=They Hung Him on the Cross (version 1) [Lead Belly]
TTITLE20=They Hung Him on the Cross (version 2) [Lead Belly]
TTITLE21=In the World [Lead Belly]
EXTD=
EXTT0=
EXTT1=
EXTT2=
EXTT3=
EXTT4=
EXTT5=
EXTT6=
EXTT7=
EXTT8=
EXTT9=
EXTT10=
EXTT11=
EXTT12=
EXTT13=
EXTT14=
EXTT15=
EXTT16=
EXTT17=
EXTT18=
EXTT19=
EXTT20=
EXTT21=
PLAYORDER=
